<?xml version="1.0" encoding="utf-8"?>
<!-- Generator: Adobe Illustrator 22.1.0, SVG Export Plug-In . SVG Version: 6.00 Build 0)  -->
<svg version="1.1" id="Слой_1" xmlns="http://www.w3.org/2000/svg" xmlns:xlink="http://www.w3.org/1999/xlink" x="0px" y="0px"
	 viewBox="0 0 54.9 55.1" style="enable-background:new 0 0 54.9 55.1;" xml:space="preserve">
<style type="text/css">
	.st5{fill:#FF5722;}
</style>
<path class="st5" d="M27.5,0.1C12.4,0.1,0,12.5,0,27.6s12.4,27.5,27.5,27.5S55,42.7,55,27.6S42.7,0.1,27.5,0.1z M25.6,37.1
	c0,0.6-0.4,1-1,1h-4.5c-0.6,0-1-0.4-1-1v-19c-0.1-0.6,0.4-1,0.9-1h4.6c0.6,0,1,0.4,1,1V37.1z M36.5,37.1c0,0.6-0.4,1-1,1H31
	c-0.6,0-1-0.4-1-1v-19c0-0.6,0.4-1,1-1h4.5c0.6,0,1,0.4,1,1V37.1z"/>
</svg>
