<svg id="Слой_1" data-name="Слой 1" xmlns="http://www.w3.org/2000/svg" viewBox="0 0 100 100"><defs><style>.cls-1{fill:#fd5622;}</style></defs><title>Монтажная область 1</title><g id="Слой_8" data-name="Слой 8"><path class="cls-1" d="M87.65,89H12.35a1.79,1.79,0,0,1-1.8-1.8v-20a1.79,1.79,0,0,1,1.8-1.8h75.3a1.79,1.79,0,0,1,1.8,1.8v20A1.79,1.79,0,0,1,87.65,89Z"/><path class="cls-1" d="M66.65,61.8H12.35a1.79,1.79,0,0,1-1.8-1.8V40a1.79,1.79,0,0,1,1.8-1.8h54.3a1.79,1.79,0,0,1,1.8,1.8V60A1.79,1.79,0,0,1,66.65,61.8Z"/><path class="cls-1" d="M42.65,34.6H12.35a1.79,1.79,0,0,1-1.8-1.8v-20a1.79,1.79,0,0,1,1.8-1.8h30.3a1.79,1.79,0,0,1,1.8,1.8v20A1.79,1.79,0,0,1,42.65,34.6Z"/></g></svg>