<?xml version="1.0" encoding="utf-8"?>
<!-- Generator: Adobe Illustrator 22.1.0, SVG Export Plug-In . SVG Version: 6.00 Build 0)  -->
<svg version="1.1" id="Слой_1" xmlns="http://www.w3.org/2000/svg" xmlns:xlink="http://www.w3.org/1999/xlink" x="0px" y="0px"
	 viewBox="0 0 54.9 55.1" style="enable-background:new 0 0 54.9 55.1;" xml:space="preserve">
<style type="text/css">
	.st0{fill:#FFFFFF;}
	.st1{fill:#FF5722;}
</style>
<g id="play-circle-fill">
	<rect id="Rectangle_141" x="14.9" y="14.2" class="st0" width="27.1" height="29"/>
	<path id="Shape" class="st1" d="M27.5,0.1C12.4,0.1,0,12.5,0,27.6s12.4,27.5,27.5,27.5S55,42.7,55,27.6S42.7,0.1,27.5,0.1z"/>
	<g id="Group_57">
		<g id="Pause">
			<path id="Rectangle_468" class="st0" d="M20,17.1h4.6c0.6,0,1,0.4,1,1v19c0,0.6-0.4,1-1,1h-4.5c-0.6,0-1-0.4-1-1v-19
				C19,17.5,19.5,17.1,20,17.1z"/>
			<path id="Rectangle_469" class="st0" d="M31,17.1h4.5c0.6,0,1,0.4,1,1v19c0,0.6-0.4,1-1,1H31c-0.6,0-1-0.4-1-1v-19
				C30,17.5,30.4,17.1,31,17.1z"/>
		</g>
	</g>
</g>
</svg>
