<svg id="Слой_1" data-name="Слой 1" xmlns="http://www.w3.org/2000/svg" viewBox="0 0 100 100"><defs><style>.cls-1{fill:#fd5622;}.cls-2{fill:none;stroke:#fd5622;stroke-linecap:round;stroke-miterlimit:10;stroke-width:2px;}</style></defs><title>Монтажная область 1</title><g id="Слой_6" data-name="Слой 6"><path class="cls-1" d="M56.73,83.2,29.13,64a1.51,1.51,0,0,1-.7-1.4V38.3a1.75,1.75,0,0,1,.7-1.4l27.6-19.1a1.71,1.71,0,0,1,2.7,1.4V81.7A1.77,1.77,0,0,1,56.73,83.2Z"/><path class="cls-1" d="M26.13,63H13.83a1.32,1.32,0,0,1-1.3-1.3V39.4a1.32,1.32,0,0,1,1.3-1.3h12.3a1.32,1.32,0,0,1,1.3,1.3V61.7A1.32,1.32,0,0,1,26.13,63Z"/><path class="cls-2" d="M64.93,33l.6.9c7.4,10.9,7.2,22.2-.6,33.1h0"/><path class="cls-2" d="M69.43,25l1,1.4c11.7,16,11.3,32.7-1,48.6h0"/><path class="cls-2" d="M74.43,16l1.4,1.8c16,21.8,15.5,44.4-1.4,66.2h0"/></g></svg>