<svg id="Слой_1" data-name="Слой 1" xmlns="http://www.w3.org/2000/svg" viewBox="0 0 100 100"><defs><style>.cls-1{fill:#fd5622;}</style></defs><title>Монтажная область 1</title><g id="Слой_5" data-name="Слой 5"><path class="cls-1" d="M70.75,82.73l-27.6-19.2a1.51,1.51,0,0,1-.7-1.4V37.83a1.75,1.75,0,0,1,.7-1.4l27.6-19.1a1.71,1.71,0,0,1,2.7,1.4v62.5A1.77,1.77,0,0,1,70.75,82.73Z"/><path class="cls-1" d="M40.15,62.53H27.85a1.32,1.32,0,0,1-1.3-1.3V38.93a1.32,1.32,0,0,1,1.3-1.3h12.3a1.32,1.32,0,0,1,1.3,1.3v22.3A1.32,1.32,0,0,1,40.15,62.53Z"/></g></svg>