<svg id="Слой_1" data-name="Слой 1" xmlns="http://www.w3.org/2000/svg" viewBox="0 0 100 100"><defs><style>.cls-1{fill:#fd5622;}</style></defs><title>Монтажная область 1</title><g id="Слой_9" data-name="Слой 9"><path class="cls-1" d="M87.65,11H12.35a1.79,1.79,0,0,0-1.8,1.8v20a1.79,1.79,0,0,0,1.8,1.8h75.3a1.79,1.79,0,0,0,1.8-1.8v-20A1.79,1.79,0,0,0,87.65,11Z"/><path class="cls-1" d="M66.65,38.2H12.35a1.79,1.79,0,0,0-1.8,1.8V60a1.79,1.79,0,0,0,1.8,1.8h54.3a1.79,1.79,0,0,0,1.8-1.8V40A1.79,1.79,0,0,0,66.65,38.2Z"/><path class="cls-1" d="M42.65,65.4H12.35a1.79,1.79,0,0,0-1.8,1.8v20a1.79,1.79,0,0,0,1.8,1.8h30.3a1.79,1.79,0,0,0,1.8-1.8v-20A1.79,1.79,0,0,0,42.65,65.4Z"/></g></svg>