<?xml version="1.0" encoding="utf-8"?>
<!-- Generator: Adobe Illustrator 22.1.0, SVG Export Plug-In . SVG Version: 6.00 Build 0)  -->
<svg version="1.1" id="Capa_1" xmlns="http://www.w3.org/2000/svg" xmlns:xlink="http://www.w3.org/1999/xlink" x="0px" y="0px"
	 viewBox="0 0 512 512" style="enable-background:new 0 0 512 512;" xml:space="preserve">
<style type="text/css">
	<!--.st0{fill:#FD5622;}-->
</style>
<path class="st0" d="M288.1,0h-64.2C97.7,15.8,0,123.5,0,254c0,141.4,114.6,256,256,256s256-114.6,256-256
	C512,123.5,414.3,15.8,288.1,0z M157.6,394.5c-4.6,8-13,12.5-21.7,12.5c-4.2,0-8.5-1.1-12.5-3.3c-11.9-6.9-16-22.2-9.2-34.2l4.9-8.5
	H177L157.6,394.5z M110.5,341c-13.8,0-25-11.2-25-25c0-13.8,11.2-25,25-25h49.2l67.5-116.8l-18.3-31.7c-6.9-11.9-2.8-27.3,9.2-34.2
	h0c11.9-6.9,27.3-2.8,34.2,9.2l3.8,6.7l3.8-6.7c6.9-11.9,22.2-16,34.1-9.2c5.8,3.3,9.9,8.7,11.6,15.2c1.7,6.5,0.8,13.2-2.5,19
	L217.4,291h54.1l28.9,50H110.5z M401.5,341h-20.3l16.5,28.5c6.9,11.9,2.8,27.3-9.1,34.1c-3.9,2.2-8.1,3.4-12.5,3.4
	c-2.2,0-4.4-0.3-6.5-0.9c-6.5-1.7-11.8-5.9-15.2-11.6l-86.8-150.3l28.9-50l55.9,96.8h49.2c13.8,0,25,11.2,25,25
	C426.5,329.8,415.3,341,401.5,341z"/>
</svg>
