<svg id="Слой_1" data-name="Слой 1" xmlns="http://www.w3.org/2000/svg" viewBox="0 0 100 100"><defs><style>.cls-1{fill:none;stroke:#fd5622;stroke-linecap:round;stroke-miterlimit:10;stroke-width:3px;}.cls-2{fill:#fd5622;}</style></defs><title>Монтажная область 1</title><g id="Слой_7" data-name="Слой 7"><path class="cls-1" d="M17.5,48.7h0c2-27.8,25.9-23.3,55-23.3"/><path class="cls-2" d="M88.6,24.9a.84.84,0,0,1,0,1.4L80.9,31l-7.5,4.6a.82.82,0,0,1-1.2-.7l.2-9.7.2-9.7a.88.88,0,0,1,1.3-.7l7.3,5Z"/><path class="cls-1" d="M83.6,50.7h0c-1.9,27.8-25.9,23.7-55,24.1"/><path class="cls-2" d="M12.5,75.4a.84.84,0,0,1,0-1.4l7.7-4.8,7.5-4.7c.5-.3,1.3.1,1.2.7L28.8,75l-.2,9.7a.88.88,0,0,1-1.3.7l-7.3-5Z"/></g></svg>