<?xml version="1.0" encoding="utf-8"?>
<!-- Generator: Adobe Illustrator 22.1.0, SVG Export Plug-In . SVG Version: 6.00 Build 0)  -->
<svg version="1.1" id="Capa_1" xmlns="http://www.w3.org/2000/svg" xmlns:xlink="http://www.w3.org/1999/xlink" x="0px" y="0px"
	 viewBox="0 0 512 512" style="enable-background:new 0 0 512 512;" xml:space="preserve">
<style type="text/css">
<!--	.st3{fill:#F3324A;}
	.st4{fill:#00DFFF;}
	.st5{fill:#00F076;}
	.st6{fill:#FFE600;}-->
	<!--.st7{fill:#C0C0C0;}-->
</style>
<polygon class="st3" points="294.3,261 361.3,328.7 150.3,430 145.3,418 "/>
<polygon class="st4" points="142.3,101 293,257.3 142.3,415.7 "/>
<path class="st5" d="M130.3,81c0,0,165.3,170.7,167,172c1.7,1.3,50.7-53,50.7-53L136.3,71.7L130.3,81z"/>
<path class="st6" d="M298.3,258.3l63.8-60l91.5,61.8c0,0-95,58-95.3,56.5S298.3,258.3,298.3,258.3z"/>
<path class="st7" d="M257,1C115.6,1,1,115.6,1,257s114.6,256,256,256s256-114.6,256-256S398.4,1,257,1z M186.3,109.9l155.8,90.7
	l-44.6,44.8L160.9,108.7C169.1,104.7,178.4,105.2,186.3,109.9z M145.8,383.4V133.2c0-4.2,0.9-8.2,2.6-11.9L284.9,258L148.4,395.1
	C146.7,391.6,145.8,387.6,145.8,383.4z M186.3,406.3c-4.3,2.6-9,3.7-13.8,3.7c-3.8,0-7.7-0.7-11.3-2.4l136.3-136.9l44.6,44.7
	L186.3,406.3z M401.4,280.8c-0.1,0-43.4,25.3-43.4,25.3L310,258l48-48.2l43.3,25.2c0.1,0,0.1,0.1,0.2,0.1c8,4.9,12.8,13.4,12.8,22.8
	S409.4,276,401.4,280.8z"/>
</svg>
