<svg id="Слой_1" data-name="Слой 1" xmlns="http://www.w3.org/2000/svg" viewBox="0 0 100 100">
    <defs></defs>
    <g id="Слой_9" data-name="Слой 9">
        <path class="cls-1"
              d="M87.65,10.87H39.71a1.79,1.79,0,0,0-1.8,1.8v16a1.79,1.79,0,0,0,1.8,1.8H87.65a1.79,1.79,0,0,0,1.8-1.8v-16A1.79,1.79,0,0,0,87.65,10.87Z"/>
        <path class="cls-1"
              d="M28.3,10.87H12.35a1.79,1.79,0,0,0-1.8,1.8v16a1.79,1.79,0,0,0,1.8,1.8h16a1.79,1.79,0,0,0,1.8-1.8v-16A1.79,1.79,0,0,0,28.3,10.87Z"/>
    </g>
    <g id="Слой_9-2" data-name="Слой 9">
        <path class="cls-1"
              d="M87.65,69.25H39.71a1.79,1.79,0,0,0-1.8,1.8v16a1.79,1.79,0,0,0,1.8,1.8H87.65a1.79,1.79,0,0,0,1.8-1.8v-16A1.79,1.79,0,0,0,87.65,69.25Z"/>
        <path class="cls-1"
              d="M28.3,69.25H12.35a1.79,1.79,0,0,0-1.8,1.8v16a1.79,1.79,0,0,0,1.8,1.8h16a1.79,1.79,0,0,0,1.8-1.8v-16A1.79,1.79,0,0,0,28.3,69.25Z"/>
    </g>
    <g id="Слой_9-3" data-name="Слой 9">
        <path class="cls-1"
              d="M87.65,40.06H39.71a1.79,1.79,0,0,0-1.8,1.8v16a1.79,1.79,0,0,0,1.8,1.8H87.65a1.79,1.79,0,0,0,1.8-1.8v-16A1.79,1.79,0,0,0,87.65,40.06Z"/>
        <path class="cls-1"
              d="M28.3,40.06H12.35a1.79,1.79,0,0,0-1.8,1.8v16a1.79,1.79,0,0,0,1.8,1.8h16a1.79,1.79,0,0,0,1.8-1.8v-16A1.79,1.79,0,0,0,28.3,40.06Z"/>
    </g>
</svg>