<?xml version="1.0" encoding="utf-8"?>
<!-- Generator: Adobe Illustrator 22.1.0, SVG Export Plug-In . SVG Version: 6.00 Build 0)  -->
<svg
	version="1.1"
	id="Слой_1"
	xmlns="http://www.w3.org/2000/svg"
	xmlns:xlink="http://www.w3.org/1999/xlink"
	x="0px"
	y="0px"
	viewBox="0 0 33.7 33.7"
	style="enable-background:new 0 0 33.7 33.7;"
	xml:space="preserve"
>
	<style type="text/css">
		.st2{display:inline;}
		.st3{fill:none;stroke:#000000;stroke-width:2;}
	</style>
	<path class="st4" d="M16.8,0C7.5,0,0,7.5,0,16.8c0,9.3,7.5,16.8,16.8,16.8c9.3,0,16.8-7.5,16.8-16.8C33.7,7.5,26.1,0,16.8,0z
		 M14,15.1l1.9,1.5V8h2v8.5l1.9-1.5l1.2,1.6l-4.1,3.3l-4.1-3.3L14,15.1z M25.6,21.6c0,1.7-1.3,3-3,3H11c-1.7,0-3-1.3-3-3v-1.5h2v1.5
		c0,0.6,0.4,1,1,1h11.6c0.6,0,1-0.4,1-1v-1.5h2V21.6z"/>
</svg>
