<svg id="Слой_1" data-name="Слой 1" xmlns="http://www.w3.org/2000/svg" viewBox="0 0 100 100">
    <defs>
    </defs>
    <g id="Слой_1-2" data-name="Слой 1">
        <path class="cls-1"
              d="M42.87,46.21H13.68a3.32,3.32,0,0,1-3.35-3.35V13.67a3.32,3.32,0,0,1,3.35-3.35H42.87a3.32,3.32,0,0,1,3.35,3.35V42.86A3.32,3.32,0,0,1,42.87,46.21Z"/>
        <path class="cls-1"
              d="M86,46.21H56.8a3.32,3.32,0,0,1-3.35-3.35V13.67a3.32,3.32,0,0,1,3.35-3.35H86a3.32,3.32,0,0,1,3.34,3.35V42.86A3.32,3.32,0,0,1,86,46.21Z"/>
        <path class="cls-1"
              d="M42.87,89.32H13.68A3.32,3.32,0,0,1,10.33,86V56.78a3.32,3.32,0,0,1,3.35-3.34H42.87a3.31,3.31,0,0,1,3.35,3.34V86A3.31,3.31,0,0,1,42.87,89.32Z"/>
        <path class="cls-1"
              d="M86,89.32H56.8A3.31,3.31,0,0,1,53.45,86V56.78a3.31,3.31,0,0,1,3.35-3.34H86a3.31,3.31,0,0,1,3.34,3.34V86A3.31,3.31,0,0,1,86,89.32Z"/>
    </g>
</svg>